HIERARCHY
ROOT Hips
{
 OFFSET 0.000000 0.000000 0.000000
 CHANNELS 6 Xposition Yposition Zposition Yrotation Xrotation Zrotation
 JOINT Chest
 {
  OFFSET 0.000000 9.585900 0.002600
  CHANNELS 3 Yrotation Xrotation Zrotation
  JOINT Chest2
  {
   OFFSET 0.000000 9.601200 -0.005300
   CHANNELS 3 Yrotation Xrotation Zrotation
   JOINT Chest3
   {
    OFFSET 0.000000 9.561800 0.000000
    CHANNELS 3 Yrotation Xrotation Zrotation
    JOINT Chest4
    {
     OFFSET 0.000000 9.552100 0.000000
     CHANNELS 3 Yrotation Xrotation Zrotation
     JOINT Neck
     {
      OFFSET 0.000000 14.453000 0.000000
      CHANNELS 3 Yrotation Xrotation Zrotation
      JOINT Head
      {
       OFFSET 0.000000 8.936500 -0.011300
       CHANNELS 3 Yrotation Xrotation Zrotation
       End Site
       {
        OFFSET 0.000000 17.073600 -0.006000
       }
      }
     }
     JOINT RightCollar
     {
      OFFSET -2.921100 9.558500 0.000000
      CHANNELS 3 Yrotation Xrotation Zrotation
      JOINT RightShoulder
      {
       OFFSET -13.519700 0.000000 0.000000
       CHANNELS 3 Yrotation Xrotation Zrotation
       JOINT RightElbow
       {
        OFFSET 0.000000 -29.696600 0.000000
        CHANNELS 3 Yrotation Xrotation Zrotation
        JOINT RightWrist
        {
         OFFSET 0.000000 -24.004700 0.000000
         CHANNELS 3 Yrotation Xrotation Zrotation
         End Site
         {
          OFFSET 0.000000 -17.728500 0.000000
         }
        }
       }
      }
     }
     JOINT LeftCollar
     {
      OFFSET 2.921100 9.558500 0.000000
      CHANNELS 3 Yrotation Xrotation Zrotation
      JOINT LeftShoulder
      {
       OFFSET 13.519700 0.000000 0.000000
       CHANNELS 3 Yrotation Xrotation Zrotation
       JOINT LeftElbow
       {
        OFFSET 0.000000 -29.696600 0.000000
        CHANNELS 3 Yrotation Xrotation Zrotation
        JOINT LeftWrist
        {
         OFFSET 0.000000 -24.004700 0.000000
         CHANNELS 3 Yrotation Xrotation Zrotation
         End Site
         {
          OFFSET 0.000000 -17.728500 0.000000
         }
        }
       }
      }
     }
    }
   }
  }
 }
 JOINT RightHip
 {
  OFFSET -7.771700 -0.012900 -0.001300
  CHANNELS 3 Yrotation Xrotation Zrotation
  JOINT RightKnee
  {
   OFFSET 0.000000 -40.869800 0.001200
   CHANNELS 3 Yrotation Xrotation Zrotation
   JOINT RightAnkle
   {
    OFFSET 0.000000 -39.717900 0.002100
    CHANNELS 3 Yrotation Xrotation Zrotation
    JOINT RightToe
    {
     OFFSET 0.000000 -4.965400 11.033500
     CHANNELS 3 Yrotation Xrotation Zrotation
     End Site
     {
      OFFSET 0.000000 -1.423100 5.872300
     }
    }
   }
  }
 }
 JOINT LeftHip
 {
  OFFSET 7.771700 -0.012900 -0.001300
  CHANNELS 3 Yrotation Xrotation Zrotation
  JOINT LeftKnee
  {
   OFFSET 0.000000 -40.869800 0.001200
   CHANNELS 3 Yrotation Xrotation Zrotation
   JOINT LeftAnkle
   {
    OFFSET 0.000000 -39.717900 0.002100
    CHANNELS 3 Yrotation Xrotation Zrotation
    JOINT LeftToe
    {
     OFFSET 0.000000 -4.965400 11.033500
     CHANNELS 3 Yrotation Xrotation Zrotation
     End Site
     {
      OFFSET 0.000000 -1.423100 5.872300
     }
    }
   }
  }
 }
}
MOTION
Frames: 12
Frame Time: 0.008333
-97.446373 51.598899 -34.521997 178.050003 -18.587605 -0.266003 -0.772712 9.872169 0.588879 -0.050652 0.593480 0.078485 -0.047646 1.018051 0.142845 -0.737940 9.189836 1.157333 0.511841 17.699506 -1.009590 0.851711 -7.126660 -1.197460 5.158240 14.831974 12.985453 39.664965 -5.891941 -35.690136 50.909401 -69.675629 -87.417222 3.019926 -1.692857 -6.516299 -8.861229 13.957696 -16.337645 -39.597616 0.076521 41.396799 -29.272287 -63.860917 66.224779 10.867579 -12.924053 -1.300718 -13.689066 -64.013357 8.306080 -91.995484 81.572424 -100.625730 -6.174842 -12.005612 9.091982 0.326566 -0.942047 0.122336 16.595033 -61.842011 -13.582520 23.225245 84.030898 29.049655 -3.285865 -10.418691 2.337416 0.162191 0.510613 0.065614
-97.444745 51.599071 -34.524280 178.022562 -18.586787 -0.243192 -0.787933 9.882542 0.564601 -0.040813 0.590012 0.077854 -0.058492 1.017045 0.138765 -0.751526 9.194429 1.143237 0.495722 17.697710 -1.006754 0.841174 -7.111976 -1.189773 5.233493 14.773053 13.009023 39.925387 -5.943247 -35.917204 49.866292 -69.399835 -86.328465 3.178332 -1.608278 -6.728611 -8.961179 13.885499 -16.374115 -39.444513 -0.010031 41.635236 -27.971863 -63.640356 64.723772 10.738811 -12.959533 -1.101183 -13.666035 -64.018815 8.299098 -92.006688 81.576728 -100.647302 -6.165252 -12.001015 9.094947 0.320072 -0.938018 0.121407 16.678831 -61.833107 -13.613318 23.186415 84.036993 29.001639 -3.299019 -10.418911 2.352942 0.159406 0.502084 0.069951
-97.441863 51.600732 -34.526918 178.001743 -18.581383 -0.232489 -0.788879 9.883773 0.555921 -0.030592 0.586488 0.077810 -0.088379 1.026147 0.133596 -0.766810 9.194023 1.132461 0.476882 17.688078 -1.007791 0.824675 -7.107054 -1.184672 5.318448 14.669623 13.035600 40.124288 -5.952019 -36.108338 49.043720 -69.120327 -85.451066 3.312743 -1.543203 -6.893005 -9.033156 13.822156 -16.402115 -39.338759 -0.055180 41.852534 -27.059131 -63.313929 63.656234 10.597049 -12.937380 -0.891534 -13.674094 -64.024588 8.317958 -92.017965 81.578597 -100.660953 -6.168553 -11.995726 9.087995 0.336521 -0.942496 0.120820 16.792583 -61.825962 -13.641370 22.995508 84.046217 28.798128 -3.343559 -10.424368 2.394866 0.164984 0.500582 0.076330
-97.439752 51.603311 -34.529190 177.973709 -18.565539 -0.217023 -0.784509 9.874984 0.545465 -0.052158 0.593092 0.076766 -0.131761 1.042206 0.127023 -0.734731 9.177763 1.123967 0.454887 17.671134 -1.010804 0.808191 -7.112624 -1.181963 5.390514 14.584477 13.057931 40.300923 -5.963663 -36.293251 48.436036 -68.853825 -84.787602 3.413031 -1.504131 -7.000194 -9.035155 13.786779 -16.409225 -39.306378 -0.077276 42.047471 -26.526808 -62.924496 62.998584 10.459900 -12.889788 -0.686026 -13.702880 -64.039953 8.356647 -91.995838 81.576414 -100.646899 -6.172068 -11.988104 9.076709 0.333348 -0.941396 0.126831 16.883194 -61.829556 -13.666354 22.928572 84.048820 28.717209 -3.364321 -10.428942 2.420858 0.159417 0.496208 0.077612
-97.436110 51.606949 -34.532386 177.949209 -18.547495 -0.213177 -0.840737 9.896209 0.528686 -0.053415 0.592238 0.075430 -0.091795 1.023973 0.130164 -0.744997 9.174384 1.115130 0.429258 17.647993 -1.015556 0.707268 -7.155419 -1.168491 5.445064 14.529312 13.074035 40.458322 -5.990635 -36.474603 48.035764 -68.615094 -84.331994 3.479198 -1.500499 -7.053447 -9.034425 13.750970 -16.413752 -39.274350 -0.077425 42.215833 -26.309534 -62.526476 62.685106 10.342636 -12.836826 -0.498321 -13.756056 -64.052460 8.418317 -91.977939 81.578361 -100.633307 -6.178339 -11.981434 9.056542 0.340293 -0.947949 0.132513 16.954753 -61.837656 -13.677646 22.819264 84.054646 28.604617 -3.373593 -10.435749 2.422009 0.156080 0.492393 0.092515
-97.430938 51.609822 -34.532274 177.909111 -18.500768 -0.215352 -0.819799 9.861218 0.539298 -0.072716 0.605808 0.073911 -0.092615 1.023072 0.129450 -0.753166 9.170696 1.108863 0.401363 17.620287 -1.022219 0.653621 -7.194445 -1.165459 5.492298 14.486255 13.086506 40.574090 -6.024268 -36.640797 47.844029 -68.417318 -84.079907 3.517949 -1.536774 -7.062072 -9.059443 13.697672 -16.419439 -39.223268 -0.057602 42.350143 -26.293318 -62.173811 62.620694 10.261496 -12.786975 -0.354938 -13.828764 -64.091599 8.514701 -91.944661 81.589884 -100.589953 -6.200675 -11.976019 9.018257 0.369052 -0.949361 0.142261 17.014469 -61.880235 -13.679532 22.731427 84.059805 28.520104 -3.371157 -10.438405 2.420409 0.152920 0.487274 0.095986
-97.428870 51.613586 -34.535273 177.876925 -18.465106 -0.201534 -0.810182 9.838690 0.530662 -0.088330 0.621482 0.074667 -0.093148 1.022399 0.128987 -0.758686 9.168007 1.105032 0.371431 17.589764 -1.030836 0.624074 -7.227979 -1.167606 5.532794 14.454015 13.088378 40.641645 -6.070384 -36.782102 47.861311 -68.266690 -84.028048 3.539284 -1.607524 -7.035659 -9.068077 13.645210 -16.409079 -39.209309 -0.029428 42.445293 -26.364920 -61.906331 62.706197 10.223765 -12.749039 -0.268169 -13.862263 -64.120395 8.562402 -91.897553 81.601857 -100.557319 -6.184881 -11.975584 9.015320 0.365117 -0.949686 0.138862 17.094632 -61.905485 -13.704928 22.729993 84.062125 28.505905 -3.382636 -10.438886 2.439812 0.138641 0.478224 0.095729
-97.425021 51.617132 -34.538927 177.846425 -18.427017 -0.199080 -0.815398 9.831037 0.531928 -0.084148 0.620563 0.077044 -0.093440 1.021872 0.128900 -0.746596 9.153038 1.101697 0.325652 17.571363 -1.036708 0.592427 -7.261567 -1.171680 5.550809 14.435420 13.090896 40.668074 -6.113873 -36.894557 48.054485 -68.162042 -84.151302 3.550335 -1.708414 -6.985265 -9.083280 13.620034 -16.394368 -39.228626 0.001973 42.513529 -26.462673 -61.746293 62.875200 10.225317 -12.729235 -0.225502 -13.915235 -64.146422 8.636250 -91.827291 81.608684 -100.499443 -6.186569 -11.972144 9.023477 0.364969 -0.949706 0.127853 17.241616 -61.928027 -13.759776 22.452540 84.078223 28.241480 -3.425521 -10.449152 2.471986 0.160496 0.478070 0.098572
-97.421181 51.621489 -34.547349 177.815917 -18.412950 -0.195457 -0.816698 9.847412 0.533912 -0.078825 0.618598 0.081171 -0.093608 1.021317 0.129158 -0.737773 9.138768 1.096261 0.284773 17.553516 -1.039818 0.559794 -7.293408 -1.177461 5.572339 14.419789 13.098864 40.667797 -6.129856 -36.950500 48.442472 -68.081299 -84.502614 3.554156 -1.837384 -6.918422 -9.088294 13.594251 -16.379487 -39.265492 0.045836 42.546006 -26.574696 -61.696108 63.100269 10.254951 -12.729329 -0.207230 -13.950391 -64.152259 8.686715 -91.820354 81.614206 -100.489909 -6.200125 -11.969682 9.004488 0.381849 -0.955203 0.135427 17.318400 -61.932662 -13.761469 22.478109 84.088128 28.248431 -3.442419 -10.465913 2.511186 0.152010 0.472705 0.084521
-97.415165 51.624196 -34.553727 177.794292 -18.381653 -0.207757 -0.839149 9.872649 0.558905 -0.044333 0.576614 0.071519 -0.103616 1.034639 0.133256 -0.744496 9.134995 1.097935 0.269599 17.527828 -1.052351 0.517966 -7.323473 -1.179517 5.612772 14.402018 13.103870 40.653799 -6.146240 -37.010649 48.869449 -68.039583 -84.908837 3.549890 -1.989033 -6.837186 -9.084246 13.556491 -16.372820 -39.299435 0.092820 42.544524 -26.699630 -61.741271 63.362381 10.294234 -12.747975 -0.199790 -14.093725 -64.160497 8.819870 -91.732502 81.627784 -100.414992 -6.197529 -11.987605 8.974907 0.382714 -0.940372 0.144445 17.370037 -61.960699 -13.756798 22.381053 84.103168 28.153086 -3.448159 -10.480451 2.525176 0.148946 0.471718 0.083166
-97.411838 51.624591 -34.556623 177.763775 -18.324113 -0.201481 -0.819812 9.828987 0.564847 -0.044239 0.577052 0.071614 -0.108570 1.040600 0.135499 -0.748734 9.140408 1.105122 0.271092 17.501952 -1.068427 0.492464 -7.338082 -1.178362 5.643561 14.382373 13.099411 40.583070 -6.197284 -37.101383 49.315027 -68.064702 -85.277760 3.535129 -2.156106 -6.751152 -9.083281 13.519423 -16.371205 -39.327009 0.138471 42.521908 -26.847534 -61.857688 63.651047 10.328726 -12.772055 -0.195349 -14.155701 -64.207974 8.896678 -91.684188 81.635535 -100.376787 -6.185092 -11.998797 8.967350 0.365310 -0.930144 0.142832 17.460042 -62.011221 -13.800313 22.281562 84.114472 28.060019 -3.450131 -10.485914 2.525393 0.149566 0.467521 0.089352
-97.408813 51.625835 -34.565673 177.743100 -18.302701 -0.194587 -0.810541 9.820833 0.566485 -0.054279 0.590284 0.075469 -0.098360 1.037301 0.138502 -0.758996 9.155007 1.113939 0.242184 17.464388 -1.088400 0.498983 -7.352626 -1.188868 5.668196 14.348937 13.080868 40.504574 -6.225319 -37.132080 49.879615 -68.085795 -85.787841 3.509001 -2.331196 -6.669253 -9.079927 13.465515 -16.369154 -39.336157 0.175643 42.474708 -27.044919 -62.013320 63.975264 10.354408 -12.782638 -0.184747 -14.205584 -64.222656 8.943755 -91.700383 81.645841 -100.394342 -6.191280 -12.006668 8.949110 0.374359 -0.929518 0.145801 17.503399 -62.028146 -13.810042 22.258392 84.131575 28.026647 -3.433587 -10.497378 2.532437 0.130279 0.460464 0.090680
